<mxfile host="Electron" modified="2023-09-17T22:41:57.161Z" agent="Mozilla/5.0 (X11; Linux x86_64) AppleWebKit/537.36 (KHTML, like Gecko) draw.io/21.3.7 Chrome/112.0.5615.204 Electron/24.5.0 Safari/537.36" etag="DwAgY20xm_3Zl3SanoTN" version="21.3.7" type="device">
  <diagram name="Page-1" id="hjMWQOI4Iq7BSL5m3Ge4">
    <mxGraphModel dx="1035" dy="619" grid="1" gridSize="10" guides="1" tooltips="1" connect="1" arrows="1" fold="1" page="1" pageScale="1" pageWidth="850" pageHeight="1100" math="0" shadow="0">
      <root>
        <mxCell id="0" />
        <mxCell id="1" parent="0" />
        <mxCell id="nCWTyC1kBmKl3ONvoW5I-1" value="" style="rounded=0;whiteSpace=wrap;html=1;" vertex="1" parent="1">
          <mxGeometry x="40" y="40" width="780" height="480" as="geometry" />
        </mxCell>
        <mxCell id="nCWTyC1kBmKl3ONvoW5I-2" value="&lt;font style=&quot;font-size: 30px;&quot;&gt;&lt;b&gt;&lt;u&gt;ACTIVITIES&lt;/u&gt;&lt;/b&gt;&lt;/font&gt;" style="text;html=1;strokeColor=none;fillColor=none;align=center;verticalAlign=middle;whiteSpace=wrap;rounded=0;" vertex="1" parent="1">
          <mxGeometry x="333" y="40" width="185" height="50" as="geometry" />
        </mxCell>
        <mxCell id="nCWTyC1kBmKl3ONvoW5I-3" value="" style="rounded=1;whiteSpace=wrap;html=1;rotation=90;" vertex="1" parent="1">
          <mxGeometry x="125" y="190" width="300" height="180" as="geometry" />
        </mxCell>
        <mxCell id="nCWTyC1kBmKl3ONvoW5I-4" value="" style="rounded=1;whiteSpace=wrap;html=1;rotation=90;" vertex="1" parent="1">
          <mxGeometry x="425" y="190" width="300" height="180" as="geometry" />
        </mxCell>
      </root>
    </mxGraphModel>
  </diagram>
</mxfile>
